<svg width="31" height="31" viewBox="0 0 31 31" fill="none" xmlns="http://www.w3.org/2000/svg">
<path d="M19.1471 4.55882C19.1471 5.7679 18.6668 6.92745 17.8118 7.7824C16.9569 8.63734 15.7973 9.11765 14.5882 9.11765C13.3792 9.11765 12.2196 8.63734 11.3647 7.7824C10.5097 6.92745 10.0294 5.7679 10.0294 4.55882C10.0294 3.34975 10.5097 2.19019 11.3647 1.33525C12.2196 0.480303 13.3792 0 14.5882 0C15.7973 0 16.9569 0.480303 17.8118 1.33525C18.6668 2.19019 19.1471 3.34975 19.1471 4.55882ZM28.2647 5.47059C28.2647 6.43785 27.8805 7.36549 27.1965 8.04945C26.5126 8.7334 25.5849 9.11765 24.6176 9.11765C23.6504 9.11765 22.7227 8.7334 22.0388 8.04945C21.3548 7.36549 20.9706 6.43785 20.9706 5.47059C20.9706 4.50333 21.3548 3.57568 22.0388 2.89173C22.7227 2.20777 23.6504 1.82353 24.6176 1.82353C25.5849 1.82353 26.5126 2.20777 27.1965 2.89173C27.8805 3.57568 28.2647 4.50333 28.2647 5.47059ZM4.55882 9.11765C5.52608 9.11765 6.45373 8.7334 7.13768 8.04945C7.82164 7.36549 8.20588 6.43785 8.20588 5.47059C8.20588 4.50333 7.82164 3.57568 7.13768 2.89173C6.45373 2.20777 5.52608 1.82353 4.55882 1.82353C3.59156 1.82353 2.66392 2.20777 1.97996 2.89173C1.29601 3.57568 0.911765 4.50333 0.911765 5.47059C0.911765 6.43785 1.29601 7.36549 1.97996 8.04945C2.66392 8.7334 3.59156 9.11765 4.55882 9.11765ZM7.29412 13.2206C7.29412 11.9624 8.31529 10.9412 9.57353 10.9412H19.6029C20.1362 10.9409 20.6526 11.1276 21.0624 11.4688C21.4722 11.81 21.7495 12.284 21.8459 12.8085C20.034 12.9801 18.3029 13.6416 16.8382 14.7221C15.3736 15.8025 14.2305 17.2611 13.5316 18.9416C12.8326 20.622 12.6041 22.461 12.8706 24.2615C13.137 26.0619 13.8884 27.7559 15.0441 29.1619C14.0498 29.2241 13.0533 29.0821 12.116 28.7444C11.1787 28.4067 10.3206 27.8807 9.59441 27.1986C8.86826 26.5165 8.28953 25.6929 7.89391 24.7786C7.49829 23.8643 7.29416 22.8786 7.29412 21.8824V13.2206ZM23.6858 12.803C25.7628 12.9854 27.6575 13.8023 29.1765 15.0569V13.2206C29.1765 11.9624 28.1553 10.9412 26.8971 10.9412H23.0148C23.3795 11.4846 23.6165 12.1192 23.684 12.803M5.47059 13.2206C5.47059 12.3763 5.72588 11.594 6.16171 10.9412H2.27941C1.02118 10.9412 3.25282e-08 11.9624 3.25282e-08 13.2206V20.0588C-8.50966e-05 20.8395 0.166923 21.6112 0.489803 22.322C0.812683 23.0328 1.28395 23.6662 1.87195 24.1798C2.45995 24.6933 3.15105 25.0751 3.89883 25.2994C4.6466 25.5237 5.43372 25.5853 6.20729 25.4802C5.72024 24.3433 5.46959 23.1192 5.47059 21.8824V13.2206ZM31 22.7941C31 24.9705 30.1355 27.0576 28.5966 28.5966C27.0576 30.1355 24.9705 31 22.7941 31C20.6178 31 18.5306 30.1355 16.9917 28.5966C15.4528 27.0576 14.5882 24.9705 14.5882 22.7941C14.5882 20.6178 15.4528 18.5306 16.9917 16.9917C18.5306 15.4528 20.6178 14.5882 22.7941 14.5882C24.9705 14.5882 27.0576 15.4528 28.5966 16.9917C30.1355 18.5306 31 20.6178 31 22.7941ZM23.7059 19.1471C23.7059 18.9052 23.6098 18.6733 23.4388 18.5023C23.2678 18.3314 23.0359 18.2353 22.7941 18.2353C22.5523 18.2353 22.3204 18.3314 22.1494 18.5023C21.9784 18.6733 21.8824 18.9052 21.8824 19.1471V21.8824H19.1471C18.9052 21.8824 18.6733 21.9784 18.5023 22.1494C18.3314 22.3204 18.2353 22.5523 18.2353 22.7941C18.2353 23.0359 18.3314 23.2678 18.5023 23.4388C18.6733 23.6098 18.9052 23.7059 19.1471 23.7059H21.8824V26.4412C21.8824 26.683 21.9784 26.9149 22.1494 27.0859C22.3204 27.2569 22.5523 27.3529 22.7941 27.3529C23.0359 27.3529 23.2678 27.2569 23.4388 27.0859C23.6098 26.9149 23.7059 26.683 23.7059 26.4412V23.7059H26.4412C26.683 23.7059 26.9149 23.6098 27.0859 23.4388C27.2569 23.2678 27.3529 23.0359 27.3529 22.7941C27.3529 22.5523 27.2569 22.3204 27.0859 22.1494C26.9149 21.9784 26.683 21.8824 26.4412 21.8824H23.7059V19.1471Z" fill="#F5F5F5"/>
</svg>
